<svg width="281" height="279" viewBox="0 0 281 279" fill="none" xmlns="http://www.w3.org/2000/svg">
<path fill-rule="evenodd" clip-rule="evenodd" d="M236.992 150.464C220.526 192.451 148.65 182.206 148.608 130.637C148.566 77.6847 220.266 68.6218 236.94 110.824L252.719 110.482C248.185 103.922 247.659 98.8044 242.316 92.67C228.284 76.5568 207.959 66.3526 183.85 71.0819C117.653 84.0663 119.345 177.678 183.924 190.091C217.372 196.52 244.556 173.024 252.078 150.536L236.992 150.464L236.992 150.464Z" fill="#6DA1E0"/>
<path fill-rule="evenodd" clip-rule="evenodd" d="M96.501 160.738C45.3148 161.943 34.9553 113.036 51.1871 89.4796C56.2774 82.0924 59.1411 78.884 67.6347 73.8868C90.5383 60.4108 124.093 71.4264 132.984 95.932C133.2 95.7463 133.508 95.1647 133.607 95.3467L142.202 84.6332C136.684 69.0434 109.832 52.511 86.573 54.1071C38.9214 57.3774 9.04163 110.739 42.7981 155.165C48.1014 162.145 56.2381 169.33 68.0609 172.885C74.199 174.73 81.6314 175.57 88.2165 174.497C96.805 173.098 97.0492 169.695 96.501 160.738Z" fill="#6DA1E0"/>
<path fill-rule="evenodd" clip-rule="evenodd" d="M96.683 132.963C73.6901 135.048 67.4697 119.094 72.2797 106.515C77.4207 93.0722 98.0993 90.6203 105.909 102.049C112.41 111.56 109.999 136.859 109.999 150.628C109.999 158.341 110.923 169.003 108.328 175.581C107.064 178.787 105.306 181.656 103.026 183.29C94.4698 189.427 95.1099 181.068 95.1533 200.849C127.397 196.432 124.04 165.466 124.04 147.627C124.04 116.372 128.746 98.0561 106.207 84.7702C73.4999 65.4909 37.7586 110.131 67.3518 138.63C74.4262 145.443 83.5544 149.224 96.584 147.642L96.6823 132.963L96.683 132.963Z" fill="#6DA1E0"/>
<path fill-rule="evenodd" clip-rule="evenodd" d="M222.102 150.743C209.187 149.331 175.21 157.106 175.286 130.625C175.312 121.493 182.602 113.257 190.127 111.405C197.999 109.468 212.844 111.431 222.104 110.464C206.754 86.0907 161.333 95.5699 161.176 130.625C161.026 164.203 205.401 175.722 222.102 150.743Z" fill="#6DA1E0"/>
<path fill-rule="evenodd" clip-rule="evenodd" d="M95.1719 228.125C120.814 226.293 146.893 203.929 148.646 182.298C144.149 179.576 140.926 174.625 137.591 170.537L136.138 175.386C135.148 180.662 135.122 182.1 132.522 187.772C128.054 197.516 120.781 204.699 111.247 209.543C105.602 212.412 99.9118 212.563 95.2171 214.635L95.1719 228.125Z" fill="#6DA1E0"/>
</svg>
